<svg xmlns="http://www.w3.org/2000/svg" width="17.757" height="14.118" viewBox="0 0 17.757 14.118">
  <g id="Back-Arrow" transform="translate(-3.12 -4.942)">
    <path id="Path_56" data-name="Path 56" d="M16.87,19.06h-8a5.75,5.75,0,0,1,0-11.5h11a.75.75,0,1,1,0,1.5h-11a4.25,4.25,0,0,0,0,8.5h8a.75.75,0,0,1,0,1.5Z" fill="#1687a7"/>
    <path id="Path_57" data-name="Path 57" d="M17.57,11.56a.742.742,0,0,1-.53-.22.754.754,0,0,1,0-1.06l2.03-2.03L17.04,6.22A.75.75,0,0,1,18.1,5.16l2.56,2.56a.754.754,0,0,1,0,1.06L18.1,11.34A.742.742,0,0,1,17.57,11.56Z" fill="#1687a7"/>
  </g>
</svg>
