<svg width="33" height="33" viewBox="0 0 33 33" fill="none" xmlns="http://www.w3.org/2000/svg">
<path d="M2.99961 2.2285C0.484948 4.8405 0.999615 7.61517 0.999615 16.0445C0.999615 23.0445 -0.221719 30.0618 6.17028 31.7138C8.16628 32.2272 25.8516 32.2272 27.8449 31.7112C30.5063 31.0245 32.6716 28.8658 32.9676 25.1018C33.0089 24.5765 33.0089 7.52184 32.9663 6.98584C32.6516 2.9765 30.1836 0.665835 26.9316 0.197835C26.1863 0.0898353 26.0369 0.0578353 22.2129 0.0511686C8.64895 0.0578353 5.67561 -0.546165 2.99961 2.2285Z" fill="url(#paint0_linear_22_661)"/>
<path d="M16.9968 4.23699C12.1554 4.23699 7.55809 3.80632 5.80209 8.31299C5.07676 10.1743 5.18209 12.5917 5.18209 16.053C5.18209 19.0903 5.08476 21.945 5.80209 23.7917C7.55409 28.301 12.1888 27.869 16.9941 27.869C21.6301 27.869 26.4101 28.3517 28.1874 23.7917C28.9141 21.9117 28.8074 19.5303 28.8074 16.053C28.8074 11.437 29.0621 8.45699 26.8234 6.21966C24.5568 3.95299 21.4914 4.23699 16.9914 4.23699H16.9968ZM15.9381 6.36632C26.0368 6.35032 27.3221 5.22766 26.6128 20.8237C26.3608 26.3397 22.1608 25.7343 16.9981 25.7343C7.58476 25.7343 7.31409 25.465 7.31409 16.0477C7.31409 6.52099 8.06076 6.37166 15.9381 6.36366V6.36632ZM23.3034 8.32765C22.5208 8.32765 21.8861 8.96232 21.8861 9.74499C21.8861 10.5277 22.5208 11.1623 23.3034 11.1623C24.0861 11.1623 24.7208 10.5277 24.7208 9.74499C24.7208 8.96232 24.0861 8.32765 23.3034 8.32765ZM16.9968 9.98499C13.6461 9.98499 10.9301 12.7023 10.9301 16.053C10.9301 19.4037 13.6461 22.1197 16.9968 22.1197C20.3474 22.1197 23.0621 19.4037 23.0621 16.053C23.0621 12.7023 20.3474 9.98499 16.9968 9.98499ZM16.9968 12.1143C22.2034 12.1143 22.2101 19.9917 16.9968 19.9917C11.7914 19.9917 11.7834 12.1143 16.9968 12.1143Z" fill="white"/>
<defs>
<linearGradient id="paint0_linear_22_661" x1="3.06097" y1="30.0073" x2="32.8016" y2="4.26714" gradientUnits="userSpaceOnUse">
<stop stop-color="#FFDD55"/>
<stop offset="0.5" stop-color="#FF543E"/>
<stop offset="1" stop-color="#C837AB"/>
</linearGradient>
</defs>
</svg>
