<svg width="32" height="33" viewBox="0 0 32 33" fill="none" xmlns="http://www.w3.org/2000/svg">
<path d="M32 7.33078C31.982 6.6405 31.9286 5.95159 31.84 5.26678C31.7205 4.66698 31.5214 4.08583 31.248 3.53878C30.962 2.94535 30.578 2.40442 30.112 1.93878C29.6417 1.47831 29.1018 1.09493 28.512 0.802781C27.9642 0.534692 27.3831 0.340979 26.784 0.226781C26.1057 0.12518 25.4217 0.0663974 24.736 0.0507812H7.28C6.58972 0.0687595 5.90081 0.122163 5.216 0.210781C4.6162 0.330251 4.03505 0.529347 3.488 0.802781C2.89457 1.08876 2.35364 1.47282 1.888 1.93878C1.42753 2.40904 1.04415 2.94901 0.752 3.53878C0.483911 4.08656 0.290198 4.6677 0.176 5.26678C0.074399 5.94508 0.0156162 6.6291 0 7.31478V24.7708C0.0179782 25.4611 0.0713817 26.15 0.16 26.8348C0.279469 27.4346 0.478565 28.0157 0.752 28.5628C1.03798 29.1562 1.42204 29.6971 1.888 30.1628C2.35826 30.6233 2.89823 31.0066 3.488 31.2988C4.03578 31.5669 4.61692 31.7606 5.216 31.8748C5.8943 31.9764 6.57832 32.0352 7.264 32.0508H24.72C25.4103 32.0328 26.0992 31.9794 26.784 31.8908C27.3838 31.7713 27.9649 31.5722 28.512 31.2988C29.1054 31.0128 29.6464 30.6287 30.112 30.1628C30.5725 29.6925 30.9559 29.1525 31.248 28.5628C31.5161 28.015 31.7098 27.4339 31.824 26.8348C31.9256 26.1565 31.9844 25.4725 32 24.7868V7.33078ZM16.368 27.2508C14.4465 27.2413 12.5586 26.7459 10.88 25.8108L4.8 27.4108L6.4 21.4588C5.36818 19.7251 4.81598 17.7482 4.8 15.7308C4.80637 13.4635 5.48352 11.2487 6.74618 9.36551C8.00883 7.4823 9.80051 6.01483 11.8956 5.14793C13.9906 4.28102 16.2954 4.05345 18.5195 4.49388C20.7436 4.93431 22.7877 6.02304 24.3943 7.62295C26.0009 9.22285 27.0981 11.2624 27.5478 13.4847C27.9974 15.707 27.7794 18.0126 26.9213 20.1113C26.0631 22.2099 24.6031 24.0077 22.7251 25.2782C20.8472 26.5486 18.6353 27.235 16.368 27.2508ZM16.368 6.24278C14.6717 6.26219 13.0108 6.73075 11.5545 7.60076C10.0982 8.47077 8.89836 9.71115 8.07727 11.1956C7.25618 12.6801 6.84312 14.3556 6.88014 16.0516C6.91715 17.7476 7.40293 19.4036 8.288 20.8508L8.512 21.2188L7.552 24.7228L11.2 23.7308L11.552 23.9388C13.0073 24.796 14.663 25.2541 16.352 25.2668C18.8981 25.2668 21.3399 24.2554 23.1402 22.455C24.9406 20.6547 25.952 18.2129 25.952 15.6668C25.952 13.1207 24.9406 10.6789 23.1402 8.87856C21.3399 7.07821 18.8981 6.06678 16.352 6.06678L16.368 6.24278ZM21.968 19.8748C21.7584 20.2243 21.4778 20.526 21.1443 20.7603C20.8109 20.9945 20.4319 21.1562 20.032 21.2348C19.4345 21.344 18.8193 21.3056 18.24 21.1228C17.695 20.9524 17.1607 20.7493 16.64 20.5148C14.662 19.5222 12.9751 18.0338 11.744 16.1948C11.075 15.3427 10.6691 14.3141 10.576 13.2348C10.5665 12.7864 10.6513 12.3411 10.8249 11.9277C10.9986 11.5142 11.2572 11.1419 11.584 10.8348C11.6803 10.7256 11.7984 10.6379 11.9306 10.5773C12.0629 10.5167 12.2065 10.4845 12.352 10.4828H12.8C12.976 10.4828 13.216 10.4828 13.44 10.9788C13.664 11.4748 14.256 12.9628 14.336 13.1068C14.3753 13.1835 14.3958 13.2685 14.3958 13.3548C14.3958 13.441 14.3753 13.526 14.336 13.6028C14.2653 13.7766 14.1681 13.9386 14.048 14.0828C13.904 14.2588 13.744 14.4668 13.616 14.5948C13.488 14.7228 13.328 14.8828 13.488 15.1708C13.9233 15.9055 14.4622 16.5737 15.088 17.1548C15.7695 17.757 16.5486 18.2385 17.392 18.5788C17.68 18.7228 17.856 18.7068 18.016 18.5788C18.176 18.4508 18.736 17.7468 18.928 17.4588C19.12 17.1708 19.312 17.2188 19.568 17.3148C19.824 17.4108 21.248 18.0988 21.536 18.2428C21.824 18.3868 22 18.4508 22.08 18.5788C22.1494 18.9975 22.1108 19.4271 21.968 19.8268V19.8748Z" fill="#01D665"/>
</svg>
