<svg width="51" height="51" viewBox="0 0 51 51" fill="none" xmlns="http://www.w3.org/2000/svg">
<path fill-rule="evenodd" clip-rule="evenodd" d="M39.1869 17.1758C23.0045 26.9857 20.2786 28.1519 13.9091 22.3929C15.4885 27.8962 14.7669 31.8984 11.8231 35.992C19.1091 33.7714 20.4383 35.8002 24.1367 38.3393C21.8602 31.1521 25.0528 28.7874 39.1869 17.1758Z" stroke="#FFB23F" stroke-width="3" stroke-miterlimit="1.5" stroke-linecap="round" stroke-linejoin="round"/>
<path d="M33.1123 31.79C33.3434 32.545 33.4351 33.3466 33.5837 34.1207" stroke="#FFB23F" stroke-width="3" stroke-miterlimit="1.5" stroke-linecap="round" stroke-linejoin="round"/>
<path d="M30.0691 36.6561C30.6687 36.5642 31.2742 36.3937 31.867 36.2554" stroke="#FFB23F" stroke-width="3" stroke-miterlimit="1.5" stroke-linecap="round" stroke-linejoin="round"/>
<path d="M34.3106 37.6729C34.3086 38.4143 34.4414 39.3729 34.6746 40.088" stroke="#FFB23F" stroke-width="3" stroke-miterlimit="1.5" stroke-linecap="round" stroke-linejoin="round"/>
<path d="M36.2236 35.5361C37.0232 35.6009 37.8655 35.2784 38.6645 35.1787" stroke="#FFB23F" stroke-width="3" stroke-miterlimit="1.5" stroke-linecap="round" stroke-linejoin="round"/>
<path d="M18.5901 10.7007C18.6766 11.5475 18.8201 12.3838 18.9882 13.2169" stroke="#FFB23F" stroke-width="3" stroke-miterlimit="1.5" stroke-linecap="round" stroke-linejoin="round"/>
<path d="M15.2627 15.4508C15.8964 15.3941 16.5033 15.3154 17.1274 15.2017" stroke="#FFB23F" stroke-width="3" stroke-miterlimit="1.5" stroke-linecap="round" stroke-linejoin="round"/>
<path d="M19.6583 16.729C19.6715 17.5212 19.8294 18.3631 19.99 19.1421" stroke="#FFB23F" stroke-width="3" stroke-miterlimit="1.5" stroke-linecap="round" stroke-linejoin="round"/>
<path d="M21.6602 14.561C22.3816 14.3811 23.049 14.1381 23.7952 14.0527" stroke="#FFB23F" stroke-width="3" stroke-miterlimit="1.5" stroke-linecap="round" stroke-linejoin="round"/>
</svg>
