<svg width="26" height="19" viewBox="0 0 26 19" fill="none" xmlns="http://www.w3.org/2000/svg">
<path d="M3 0.75C1.75736 0.75 0.75 1.75736 0.75 3V16C0.75 17.2426 1.75736 18.25 3 18.25H23C24.2426 18.25 25.25 17.2426 25.25 16V3C25.25 1.75736 24.2426 0.75 23 0.75H3Z" fill="white" stroke="#CAD2DB" stroke-width="0.5"/>
<path fill-rule="evenodd" clip-rule="evenodd" d="M14.9301 7.32104C14.6973 7.23467 14.3326 7.14209 13.877 7.14209C12.716 7.14209 11.898 7.72008 11.8911 8.54845C11.8846 9.1608 12.475 9.50245 12.9207 9.7063C13.378 9.91513 13.5318 10.0484 13.5296 10.2349C13.5268 10.5205 13.1644 10.6511 12.8266 10.6511C12.3564 10.6511 12.1066 10.5865 11.7207 10.4274L11.5692 10.3596L11.4043 11.3136C11.6788 11.4326 12.1862 11.5357 12.7132 11.541C13.9483 11.541 14.7502 10.9696 14.7593 10.085C14.7637 9.60025 14.4506 9.23126 13.7728 8.92716C13.3621 8.73001 13.1106 8.59841 13.1132 8.39881C13.1132 8.22165 13.3261 8.03226 13.7861 8.03226C14.1704 8.02638 14.4487 8.10916 14.6655 8.19553L14.7708 8.24468L14.9301 7.32104Z" fill="#00579F"/>
<path fill-rule="evenodd" clip-rule="evenodd" d="M16.4942 9.96705C16.5914 9.72148 16.9623 8.77572 16.9623 8.77572C16.9554 8.78707 17.0588 8.52901 17.1182 8.36901L17.1976 8.73645C17.1976 8.73645 17.4225 9.75373 17.4695 9.96705H16.4942ZM17.9431 7.22021H17.0352C16.7539 7.22021 16.5434 7.29606 16.4199 7.57362L14.6748 11.4792H15.9086C15.9086 11.4792 16.1104 10.954 16.156 10.8388C16.2909 10.8388 17.4895 10.8406 17.6609 10.8406C17.6961 10.9897 17.8038 11.4792 17.8038 11.4792H18.8941L17.9431 7.22021Z" fill="#00579F"/>
<path fill-rule="evenodd" clip-rule="evenodd" d="M8.50777 7.21924L7.35736 10.1254L7.23481 9.53478C7.02068 8.85393 6.35344 8.11634 5.60742 7.7471L6.65932 11.4741L7.90255 11.4728L9.75241 7.21924H8.50777Z" fill="#00579F"/>
<path fill-rule="evenodd" clip-rule="evenodd" d="M6.29059 7.2168H4.39589L4.38086 7.30545C5.85498 7.65821 6.83033 8.51074 7.23521 9.53495L6.82323 7.57657C6.75204 7.30676 6.54576 7.22619 6.29059 7.2168Z" fill="#F9A51A"/>
<path fill-rule="evenodd" clip-rule="evenodd" d="M10.2278 7.21631L9.49316 11.4781H10.6677L11.4028 7.21631H10.2278Z" fill="#00579F"/>
<path fill-rule="evenodd" clip-rule="evenodd" d="M1 3C1 1.89543 1.89543 1 3 1H23C24.1046 1 25 1.89543 25 3V6H1V3Z" fill="#00579F"/>
<path fill-rule="evenodd" clip-rule="evenodd" d="M25 16C25 17.1046 24.1046 18 23 18L3 18C1.89543 18 1 17.1046 1 16V13L25 13V16Z" fill="#F9A51A"/>
</svg>
